# Blender v2.80 (sub 75) OBJ File: 'Pfeil.blend'
# www.blender.org
mtllib Pfeil.mtl
o Cube
v 1.000000 0.257427 -1.000000
v 1.000000 -0.257427 -1.000000
v 0.541575 0.265412 0.555506
v 0.541575 -0.249443 0.555506
v -0.015361 0.257427 -1.006496
v -0.015361 -0.257427 -1.006496
vt 0.125000 0.500000
vt 0.375000 0.500000
vt 0.375000 0.750000
vt 0.125000 0.750000
vt 0.625000 0.500000
vt 0.875000 0.500000
vt 0.875000 0.750000
vt 0.625000 0.750000
vt 0.000000 0.000000
vt 0.000000 0.000000
vt 0.000000 0.000000
vt 0.000000 0.000000
vt 0.000000 0.000000
vt 0.000000 0.000000
vn 0.9592 0.0000 0.2827
vn 0.0064 0.0000 -1.0000
vn 0.0000 1.0000 -0.0051
vn -0.9419 0.0000 0.3358
vn -0.0000 -1.0000 0.0051
usemtl Material
s off
f 2/1/1 1/2/1 3/3/1 4/4/1
f 6/5/2 5/6/2 1/7/2 2/8/2
f 3/9/3 1/10/3 5/11/3
f 3/9/4 6/12/4 4/13/4
f 3/9/4 5/11/4 6/12/4
f 4/13/5 6/12/5 2/14/5
